<mxfile host="app.diagrams.net" modified="2024-04-15T06:51:08.790Z" agent="Mozilla/5.0 (Windows NT 10.0; Win64; x64) AppleWebKit/537.36 (KHTML, like Gecko) Chrome/123.0.0.0 Safari/537.36" etag="dDXOFYph2eh807-Zs1Gj" version="23.1.5" type="github">
  <diagram name="Page-1" id="9f46799a-70d6-7492-0946-bef42562c5a5">
    <mxGraphModel dx="928" dy="465" grid="0" gridSize="10" guides="1" tooltips="1" connect="1" arrows="1" fold="1" page="0" pageScale="1" pageWidth="1100" pageHeight="850" background="none" math="0" shadow="0">
      <root>
        <mxCell id="0" />
        <mxCell id="1" parent="0" />
        <mxCell id="78961159f06e98e8-17" value="数智无线app工具-皮基站模块" style="swimlane;html=1;fontStyle=1;align=center;verticalAlign=top;childLayout=stackLayout;horizontal=1;startSize=26;horizontalStack=0;resizeParent=1;resizeLast=0;collapsible=1;marginBottom=0;swimlaneFillColor=#ffffff;rounded=0;shadow=0;comic=0;labelBackgroundColor=none;strokeWidth=1;fillColor=none;fontFamily=Verdana;fontSize=12" parent="1" vertex="1">
          <mxGeometry x="450" y="160" width="230" height="150" as="geometry">
            <mxRectangle x="90" y="83" width="110" height="30" as="alternateBounds" />
          </mxGeometry>
        </mxCell>
        <mxCell id="78961159f06e98e8-21" value="功能1.信息收集(急需)" style="text;html=1;strokeColor=none;fillColor=none;align=left;verticalAlign=top;spacingLeft=4;spacingRight=4;whiteSpace=wrap;overflow=hidden;rotatable=0;points=[[0,0.5],[1,0.5]];portConstraint=eastwest;" parent="78961159f06e98e8-17" vertex="1">
          <mxGeometry y="26" width="230" height="26" as="geometry" />
        </mxCell>
        <mxCell id="78961159f06e98e8-23" value="功能2.监控失败、RRH离线告警查询" style="text;html=1;strokeColor=none;fillColor=none;align=left;verticalAlign=top;spacingLeft=4;spacingRight=4;whiteSpace=wrap;overflow=hidden;rotatable=0;points=[[0,0.5],[1,0.5]];portConstraint=eastwest;" parent="78961159f06e98e8-17" vertex="1">
          <mxGeometry y="52" width="230" height="26" as="geometry" />
        </mxCell>
        <mxCell id="78961159f06e98e8-25" value="功能3.简要的KPI指标模板展示(到区县)" style="text;html=1;strokeColor=none;fillColor=none;align=left;verticalAlign=top;spacingLeft=4;spacingRight=4;whiteSpace=wrap;overflow=hidden;rotatable=0;points=[[0,0.5],[1,0.5]];portConstraint=eastwest;" parent="78961159f06e98e8-17" vertex="1">
          <mxGeometry y="78" width="230" height="32" as="geometry" />
        </mxCell>
        <mxCell id="Q_XaEy7pAVDn_dILjwYX-11" value="功能4.展示可回收设备" style="text;html=1;strokeColor=none;fillColor=none;align=left;verticalAlign=top;spacingLeft=4;spacingRight=4;whiteSpace=wrap;overflow=hidden;rotatable=0;points=[[0,0.5],[1,0.5]];portConstraint=eastwest;" vertex="1" parent="78961159f06e98e8-17">
          <mxGeometry y="110" width="230" height="32" as="geometry" />
        </mxCell>
        <mxCell id="78961159f06e98e8-30" value="皮基站网管" style="swimlane;html=1;fontStyle=1;align=center;verticalAlign=top;childLayout=stackLayout;horizontal=1;startSize=26;horizontalStack=0;resizeParent=1;resizeLast=0;collapsible=1;marginBottom=0;swimlaneFillColor=#ffffff;rounded=0;shadow=0;comic=0;labelBackgroundColor=none;strokeWidth=1;fillColor=none;fontFamily=Verdana;fontSize=12" parent="1" vertex="1">
          <mxGeometry x="800" y="160" width="230" height="110" as="geometry" />
        </mxCell>
        <mxCell id="78961159f06e98e8-31" value="是否支持信息修改API接口？" style="text;html=1;strokeColor=none;fillColor=none;align=left;verticalAlign=top;spacingLeft=4;spacingRight=4;whiteSpace=wrap;overflow=hidden;rotatable=0;points=[[0,0.5],[1,0.5]];portConstraint=eastwest;" parent="78961159f06e98e8-30" vertex="1">
          <mxGeometry y="26" width="230" height="26" as="geometry" />
        </mxCell>
        <mxCell id="78961159f06e98e8-32" value="是否支持监控告警API接口(类似集告)" style="text;html=1;strokeColor=none;fillColor=none;align=left;verticalAlign=top;spacingLeft=4;spacingRight=4;whiteSpace=wrap;overflow=hidden;rotatable=0;points=[[0,0.5],[1,0.5]];portConstraint=eastwest;" parent="78961159f06e98e8-30" vertex="1">
          <mxGeometry y="52" width="230" height="26" as="geometry" />
        </mxCell>
        <mxCell id="Q_XaEy7pAVDn_dILjwYX-10" value="是否支持采集周边宏站信号" style="text;html=1;strokeColor=none;fillColor=none;align=left;verticalAlign=top;spacingLeft=4;spacingRight=4;whiteSpace=wrap;overflow=hidden;rotatable=0;points=[[0,0.5],[1,0.5]];portConstraint=eastwest;" vertex="1" parent="78961159f06e98e8-30">
          <mxGeometry y="78" width="230" height="26" as="geometry" />
        </mxCell>
        <mxCell id="78961159f06e98e8-69" value="数智无线-皮基站模块管理后台" style="swimlane;html=1;fontStyle=1;align=center;verticalAlign=top;childLayout=stackLayout;horizontal=1;startSize=26;horizontalStack=0;resizeParent=1;resizeLast=0;collapsible=1;marginBottom=0;swimlaneFillColor=#ffffff;rounded=0;shadow=0;comic=0;labelBackgroundColor=none;strokeWidth=1;fillColor=none;fontFamily=Verdana;fontSize=12" parent="1" vertex="1">
          <mxGeometry x="120" y="160" width="190" height="193.5" as="geometry" />
        </mxCell>
        <mxCell id="78961159f06e98e8-70" value="功能1.收集信息可查看及导出" style="text;html=1;strokeColor=none;fillColor=none;align=left;verticalAlign=top;spacingLeft=4;spacingRight=4;whiteSpace=wrap;overflow=hidden;rotatable=0;points=[[0,0.5],[1,0.5]];portConstraint=eastwest;" parent="78961159f06e98e8-69" vertex="1">
          <mxGeometry y="26" width="190" height="26" as="geometry" />
        </mxCell>
        <mxCell id="78961159f06e98e8-71" value="功能2.收集信息同步至皮基站网管" style="text;html=1;strokeColor=none;fillColor=none;align=left;verticalAlign=top;spacingLeft=4;spacingRight=4;whiteSpace=wrap;overflow=hidden;rotatable=0;points=[[0,0.5],[1,0.5]];portConstraint=eastwest;" parent="78961159f06e98e8-69" vertex="1">
          <mxGeometry y="52" width="190" height="26" as="geometry" />
        </mxCell>
        <mxCell id="78961159f06e98e8-72" value="功能3.获取皮基站相关性能参数生成（在线率、流量、用户数）报表" style="text;html=1;strokeColor=none;fillColor=none;align=left;verticalAlign=top;spacingLeft=4;spacingRight=4;whiteSpace=wrap;overflow=hidden;rotatable=0;points=[[0,0.5],[1,0.5]];portConstraint=eastwest;" parent="78961159f06e98e8-69" vertex="1">
          <mxGeometry y="78" width="190" height="42" as="geometry" />
        </mxCell>
        <mxCell id="78961159f06e98e8-77" value="" style="line;html=1;strokeWidth=1;fillColor=none;align=left;verticalAlign=middle;spacingTop=-1;spacingLeft=3;spacingRight=3;rotatable=0;labelPosition=right;points=[];portConstraint=eastwest;" parent="78961159f06e98e8-69" vertex="1">
          <mxGeometry y="120" width="190" height="8" as="geometry" />
        </mxCell>
        <mxCell id="78961159f06e98e8-78" value="功能1为初步需求" style="text;html=1;strokeColor=none;fillColor=none;align=left;verticalAlign=top;spacingLeft=4;spacingRight=4;whiteSpace=wrap;overflow=hidden;rotatable=0;points=[[0,0.5],[1,0.5]];portConstraint=eastwest;" parent="78961159f06e98e8-69" vertex="1">
          <mxGeometry y="128" width="190" height="26" as="geometry" />
        </mxCell>
        <mxCell id="78961159f06e98e8-79" value="功能2和3为后期需求" style="text;html=1;strokeColor=none;fillColor=none;align=left;verticalAlign=top;spacingLeft=4;spacingRight=4;whiteSpace=wrap;overflow=hidden;rotatable=0;points=[[0,0.5],[1,0.5]];portConstraint=eastwest;" parent="78961159f06e98e8-69" vertex="1">
          <mxGeometry y="154" width="190" height="26" as="geometry" />
        </mxCell>
        <mxCell id="Q_XaEy7pAVDn_dILjwYX-1" style="edgeStyle=orthogonalEdgeStyle;rounded=0;orthogonalLoop=1;jettySize=auto;html=1;exitX=0;exitY=0.5;exitDx=0;exitDy=0;entryX=1;entryY=0.5;entryDx=0;entryDy=0;shape=flexArrow;startArrow=block;" edge="1" parent="1" source="78961159f06e98e8-23" target="78961159f06e98e8-71">
          <mxGeometry relative="1" as="geometry" />
        </mxCell>
        <mxCell id="Q_XaEy7pAVDn_dILjwYX-2" style="edgeStyle=orthogonalEdgeStyle;rounded=0;orthogonalLoop=1;jettySize=auto;html=1;entryX=0.5;entryY=1;entryDx=0;entryDy=0;startArrow=classic;startFill=1;shape=flexArrow;" edge="1" parent="1" source="78961159f06e98e8-79" target="78961159f06e98e8-30">
          <mxGeometry relative="1" as="geometry" />
        </mxCell>
        <mxCell id="Q_XaEy7pAVDn_dILjwYX-14" style="edgeStyle=orthogonalEdgeStyle;rounded=0;orthogonalLoop=1;jettySize=auto;html=1;entryX=0.5;entryY=0;entryDx=0;entryDy=0;shape=flexArrow;" edge="1" parent="1" source="Q_XaEy7pAVDn_dILjwYX-3" target="78961159f06e98e8-69">
          <mxGeometry relative="1" as="geometry" />
        </mxCell>
        <mxCell id="Q_XaEy7pAVDn_dILjwYX-3" value="综合网管" style="swimlane;html=1;fontStyle=1;align=center;verticalAlign=top;childLayout=stackLayout;horizontal=1;startSize=26;horizontalStack=0;resizeParent=1;resizeLast=0;collapsible=1;marginBottom=0;swimlaneFillColor=#ffffff;rounded=0;shadow=0;comic=0;labelBackgroundColor=none;strokeWidth=1;fillColor=none;fontFamily=Verdana;fontSize=12" vertex="1" parent="1">
          <mxGeometry x="120" y="30" width="190" height="70" as="geometry" />
        </mxCell>
        <mxCell id="Q_XaEy7pAVDn_dILjwYX-4" value="宏站站址信息同步用于判断皮基站周边是否新增宏站？" style="text;html=1;strokeColor=none;fillColor=none;align=left;verticalAlign=top;spacingLeft=4;spacingRight=4;whiteSpace=wrap;overflow=hidden;rotatable=0;points=[[0,0.5],[1,0.5]];portConstraint=eastwest;" vertex="1" parent="Q_XaEy7pAVDn_dILjwYX-3">
          <mxGeometry y="26" width="190" height="34" as="geometry" />
        </mxCell>
        <mxCell id="Q_XaEy7pAVDn_dILjwYX-19" style="edgeStyle=orthogonalEdgeStyle;rounded=0;orthogonalLoop=1;jettySize=auto;html=1;exitX=0.5;exitY=1;exitDx=0;exitDy=0;entryX=0.5;entryY=0;entryDx=0;entryDy=0;" edge="1" parent="1" source="Q_XaEy7pAVDn_dILjwYX-15" target="Q_XaEy7pAVDn_dILjwYX-17">
          <mxGeometry relative="1" as="geometry" />
        </mxCell>
        <mxCell id="Q_XaEy7pAVDn_dILjwYX-15" value="扫码填写" style="rounded=1;whiteSpace=wrap;html=1;" vertex="1" parent="1">
          <mxGeometry x="400" y="420" width="70" height="30" as="geometry" />
        </mxCell>
        <mxCell id="Q_XaEy7pAVDn_dILjwYX-32" style="edgeStyle=orthogonalEdgeStyle;rounded=0;orthogonalLoop=1;jettySize=auto;html=1;exitX=0.5;exitY=1;exitDx=0;exitDy=0;entryX=0.5;entryY=0;entryDx=0;entryDy=0;" edge="1" parent="1" source="Q_XaEy7pAVDn_dILjwYX-17" target="Q_XaEy7pAVDn_dILjwYX-21">
          <mxGeometry relative="1" as="geometry" />
        </mxCell>
        <mxCell id="Q_XaEy7pAVDn_dILjwYX-17" value="必填字段：序列号、区县" style="rounded=0;whiteSpace=wrap;html=1;" vertex="1" parent="1">
          <mxGeometry x="360" y="480" width="150" height="40" as="geometry" />
        </mxCell>
        <mxCell id="Q_XaEy7pAVDn_dILjwYX-33" style="edgeStyle=orthogonalEdgeStyle;rounded=0;orthogonalLoop=1;jettySize=auto;html=1;exitX=0.5;exitY=1;exitDx=0;exitDy=0;entryX=0.5;entryY=0;entryDx=0;entryDy=0;" edge="1" parent="1" source="Q_XaEy7pAVDn_dILjwYX-21" target="Q_XaEy7pAVDn_dILjwYX-25">
          <mxGeometry relative="1" as="geometry">
            <mxPoint x="419.5882352941178" y="640" as="targetPoint" />
          </mxGeometry>
        </mxCell>
        <mxCell id="Q_XaEy7pAVDn_dILjwYX-35" value="回收" style="edgeLabel;html=1;align=center;verticalAlign=middle;resizable=0;points=[];" vertex="1" connectable="0" parent="Q_XaEy7pAVDn_dILjwYX-33">
          <mxGeometry x="0.0667" relative="1" as="geometry">
            <mxPoint as="offset" />
          </mxGeometry>
        </mxCell>
        <mxCell id="Q_XaEy7pAVDn_dILjwYX-38" style="edgeStyle=orthogonalEdgeStyle;rounded=0;orthogonalLoop=1;jettySize=auto;html=1;exitX=1;exitY=0.5;exitDx=0;exitDy=0;entryX=0;entryY=0.5;entryDx=0;entryDy=0;" edge="1" parent="1" source="Q_XaEy7pAVDn_dILjwYX-21" target="Q_XaEy7pAVDn_dILjwYX-27">
          <mxGeometry relative="1" as="geometry" />
        </mxCell>
        <mxCell id="Q_XaEy7pAVDn_dILjwYX-39" value="新装" style="edgeLabel;html=1;align=center;verticalAlign=middle;resizable=0;points=[];" vertex="1" connectable="0" parent="Q_XaEy7pAVDn_dILjwYX-38">
          <mxGeometry x="0.0095" y="-3" relative="1" as="geometry">
            <mxPoint y="-2" as="offset" />
          </mxGeometry>
        </mxCell>
        <mxCell id="Q_XaEy7pAVDn_dILjwYX-21" value="新装、回收" style="rhombus;whiteSpace=wrap;html=1;" vertex="1" parent="1">
          <mxGeometry x="395" y="540" width="80" height="80" as="geometry" />
        </mxCell>
        <mxCell id="Q_XaEy7pAVDn_dILjwYX-34" style="edgeStyle=orthogonalEdgeStyle;rounded=0;orthogonalLoop=1;jettySize=auto;html=1;exitX=0.5;exitY=1;exitDx=0;exitDy=0;" edge="1" parent="1" source="Q_XaEy7pAVDn_dILjwYX-25" target="Q_XaEy7pAVDn_dILjwYX-50">
          <mxGeometry relative="1" as="geometry">
            <mxPoint x="435" y="990" as="targetPoint" />
          </mxGeometry>
        </mxCell>
        <mxCell id="Q_XaEy7pAVDn_dILjwYX-25" value="填写回收字段" style="rounded=0;whiteSpace=wrap;html=1;" vertex="1" parent="1">
          <mxGeometry x="389" y="650" width="91" height="30" as="geometry" />
        </mxCell>
        <mxCell id="Q_XaEy7pAVDn_dILjwYX-42" style="edgeStyle=orthogonalEdgeStyle;rounded=0;orthogonalLoop=1;jettySize=auto;html=1;exitX=0.5;exitY=1;exitDx=0;exitDy=0;entryX=0.5;entryY=0;entryDx=0;entryDy=0;" edge="1" parent="1" source="Q_XaEy7pAVDn_dILjwYX-27" target="Q_XaEy7pAVDn_dILjwYX-40">
          <mxGeometry relative="1" as="geometry" />
        </mxCell>
        <mxCell id="Q_XaEy7pAVDn_dILjwYX-44" value="大功率" style="edgeLabel;html=1;align=center;verticalAlign=middle;resizable=0;points=[];" vertex="1" connectable="0" parent="Q_XaEy7pAVDn_dILjwYX-42">
          <mxGeometry x="-0.0984" relative="1" as="geometry">
            <mxPoint as="offset" />
          </mxGeometry>
        </mxCell>
        <mxCell id="Q_XaEy7pAVDn_dILjwYX-46" style="edgeStyle=orthogonalEdgeStyle;rounded=0;orthogonalLoop=1;jettySize=auto;html=1;exitX=1;exitY=0.5;exitDx=0;exitDy=0;entryX=0;entryY=0.5;entryDx=0;entryDy=0;" edge="1" parent="1" source="Q_XaEy7pAVDn_dILjwYX-27" target="Q_XaEy7pAVDn_dILjwYX-28">
          <mxGeometry relative="1" as="geometry" />
        </mxCell>
        <mxCell id="Q_XaEy7pAVDn_dILjwYX-47" value="家庭级" style="edgeLabel;html=1;align=center;verticalAlign=middle;resizable=0;points=[];" vertex="1" connectable="0" parent="Q_XaEy7pAVDn_dILjwYX-46">
          <mxGeometry x="-0.0183" relative="1" as="geometry">
            <mxPoint as="offset" />
          </mxGeometry>
        </mxCell>
        <mxCell id="Q_XaEy7pAVDn_dILjwYX-55" style="edgeStyle=orthogonalEdgeStyle;rounded=0;orthogonalLoop=1;jettySize=auto;html=1;exitX=0.5;exitY=0;exitDx=0;exitDy=0;entryX=0;entryY=0.5;entryDx=0;entryDy=0;" edge="1" parent="1" source="Q_XaEy7pAVDn_dILjwYX-27" target="Q_XaEy7pAVDn_dILjwYX-54">
          <mxGeometry relative="1" as="geometry" />
        </mxCell>
        <mxCell id="Q_XaEy7pAVDn_dILjwYX-56" value="手机伴侣" style="edgeLabel;html=1;align=center;verticalAlign=middle;resizable=0;points=[];" vertex="1" connectable="0" parent="Q_XaEy7pAVDn_dILjwYX-55">
          <mxGeometry x="0.0178" y="-2" relative="1" as="geometry">
            <mxPoint x="18" y="-2" as="offset" />
          </mxGeometry>
        </mxCell>
        <mxCell id="Q_XaEy7pAVDn_dILjwYX-27" value="大功率&lt;br&gt;家庭级&lt;br&gt;手机伴侣" style="rhombus;whiteSpace=wrap;html=1;" vertex="1" parent="1">
          <mxGeometry x="546" y="540" width="80" height="80" as="geometry" />
        </mxCell>
        <mxCell id="Q_XaEy7pAVDn_dILjwYX-49" style="edgeStyle=orthogonalEdgeStyle;rounded=0;orthogonalLoop=1;jettySize=auto;html=1;exitX=0.5;exitY=1;exitDx=0;exitDy=0;entryX=0.5;entryY=0;entryDx=0;entryDy=0;" edge="1" parent="1" source="Q_XaEy7pAVDn_dILjwYX-28" target="Q_XaEy7pAVDn_dILjwYX-50">
          <mxGeometry relative="1" as="geometry">
            <mxPoint x="435" y="990" as="targetPoint" />
            <Array as="points">
              <mxPoint x="743" y="721" />
              <mxPoint x="435" y="721" />
            </Array>
          </mxGeometry>
        </mxCell>
        <mxCell id="Q_XaEy7pAVDn_dILjwYX-28" value="填写家庭级字段" style="rounded=0;whiteSpace=wrap;html=1;" vertex="1" parent="1">
          <mxGeometry x="697" y="560" width="91" height="40" as="geometry" />
        </mxCell>
        <mxCell id="Q_XaEy7pAVDn_dILjwYX-48" style="edgeStyle=orthogonalEdgeStyle;rounded=0;orthogonalLoop=1;jettySize=auto;html=1;exitX=0.5;exitY=1;exitDx=0;exitDy=0;entryX=0.5;entryY=0;entryDx=0;entryDy=0;" edge="1" parent="1" source="Q_XaEy7pAVDn_dILjwYX-40" target="Q_XaEy7pAVDn_dILjwYX-50">
          <mxGeometry relative="1" as="geometry">
            <mxPoint x="435" y="990" as="targetPoint" />
            <Array as="points">
              <mxPoint x="584" y="683" />
              <mxPoint x="584" y="720" />
              <mxPoint x="435" y="720" />
            </Array>
          </mxGeometry>
        </mxCell>
        <mxCell id="Q_XaEy7pAVDn_dILjwYX-40" value="填写大功率字段" style="rounded=0;whiteSpace=wrap;html=1;" vertex="1" parent="1">
          <mxGeometry x="541.5" y="653" width="89" height="30" as="geometry" />
        </mxCell>
        <mxCell id="Q_XaEy7pAVDn_dILjwYX-52" style="edgeStyle=orthogonalEdgeStyle;rounded=0;orthogonalLoop=1;jettySize=auto;html=1;exitX=0.5;exitY=1;exitDx=0;exitDy=0;" edge="1" parent="1" source="Q_XaEy7pAVDn_dILjwYX-50" target="Q_XaEy7pAVDn_dILjwYX-51">
          <mxGeometry relative="1" as="geometry" />
        </mxCell>
        <mxCell id="Q_XaEy7pAVDn_dILjwYX-50" value="告知用户注意事项&lt;br&gt;设备SN序号拍照&lt;br&gt;用户电子签名" style="rounded=0;whiteSpace=wrap;html=1;" vertex="1" parent="1">
          <mxGeometry x="375" y="751" width="120" height="45" as="geometry" />
        </mxCell>
        <mxCell id="Q_XaEy7pAVDn_dILjwYX-51" value="提交" style="rounded=1;whiteSpace=wrap;html=1;" vertex="1" parent="1">
          <mxGeometry x="400" y="825" width="70" height="30" as="geometry" />
        </mxCell>
        <mxCell id="Q_XaEy7pAVDn_dILjwYX-57" style="edgeStyle=orthogonalEdgeStyle;rounded=0;orthogonalLoop=1;jettySize=auto;html=1;exitX=1;exitY=0.5;exitDx=0;exitDy=0;entryX=0.5;entryY=0;entryDx=0;entryDy=0;" edge="1" parent="1" source="Q_XaEy7pAVDn_dILjwYX-54" target="Q_XaEy7pAVDn_dILjwYX-50">
          <mxGeometry relative="1" as="geometry">
            <Array as="points">
              <mxPoint x="814" y="476" />
              <mxPoint x="814" y="721" />
              <mxPoint x="435" y="721" />
            </Array>
          </mxGeometry>
        </mxCell>
        <mxCell id="Q_XaEy7pAVDn_dILjwYX-54" value="填写手机伴侣字段" style="rounded=0;whiteSpace=wrap;html=1;" vertex="1" parent="1">
          <mxGeometry x="691" y="456" width="103" height="40" as="geometry" />
        </mxCell>
      </root>
    </mxGraphModel>
  </diagram>
</mxfile>
